<?xml version="1.0" encoding="UTF-8" standalone="no"?>
<svg
   xmlns:dc="http://purl.org/dc/elements/1.1/"
   xmlns:cc="http://creativecommons.org/ns#"
   xmlns:rdf="http://www.w3.org/1999/02/22-rdf-syntax-ns#"
   xmlns:svg="http://www.w3.org/2000/svg"
   xmlns="http://www.w3.org/2000/svg"
   xmlns:sodipodi="http://sodipodi.sourceforge.net/DTD/sodipodi-0.dtd"
   xmlns:inkscape="http://www.inkscape.org/namespaces/inkscape"
   viewBox="0 0 90 35"
   version="1.1"
   id="svg2"
   inkscape:version="0.91 r13725"
   sodipodi:docname="epizza.svg"
   width="90"
   height="35">
  <metadata
     id="metadata12">
    <rdf:RDF>
      <cc:Work
         rdf:about="">
        <dc:format>image/svg+xml</dc:format>
        <dc:type
           rdf:resource="http://purl.org/dc/dcmitype/StillImage" />
        <dc:title></dc:title>
      </cc:Work>
    </rdf:RDF>
  </metadata>
  <defs
     id="defs10" />
  <sodipodi:namedview
     pagecolor="#ffffff"
     bordercolor="#666666"
     borderopacity="1"
     objecttolerance="10"
     gridtolerance="10"
     guidetolerance="10"
     inkscape:pageopacity="0"
     inkscape:pageshadow="2"
     inkscape:window-width="1920"
     inkscape:window-height="1018"
     id="namedview8"
     showgrid="false"
     inkscape:zoom="2.6833333"
     inkscape:cx="60"
     inkscape:cy="30"
     inkscape:window-x="1920"
     inkscape:window-y="0"
     inkscape:window-maximized="1"
     inkscape:current-layer="svg2" />
  <g
     style="font-size:30px;font-family:'Coolvetica Rg';fill:#d41217"
     id="text4">
    <path
       d="m 16.555901,16.086832 q -0.03,-0.81 -0.3,-1.41 -0.24,-0.63 -0.66,-1.02 -0.42,-0.42 -0.96,-0.6 -0.54,-0.21 -1.11,-0.21 -1.17,0 -2.04,0.87 -0.84,0.84 -0.96,2.37 l 6.03,0 z m -6.15,2.46 q 0.09,1.68 0.96,2.67 0.9,0.99 2.34,0.99 0.96,0 1.68,-0.42 0.75,-0.45 0.96,-1.23 l 4.02,0 q -0.69,2.28 -2.4,3.51 -1.71,1.23 -4.08,1.23 -7.3800004,0 -7.3800004,-8.04 0,-1.71 0.48,-3.09 0.48,-1.38 1.38,-2.37 0.93,-0.99 2.2500004,-1.5 1.32,-0.5400003 3.03,-0.5400003 3.42,0 5.16,2.1900003 1.77,2.19 1.77,6.6 l -10.17,0 z"
       style="font-size:30px;font-family:'Coolvetica Rg';fill:#d41217"
       id="path4171" />
  </g>
  <g
     style="font-size:30px;font-family:'Coolvetica Rg';fill:#2c2926"
     id="text6">
    <path
       d="m 28.795901,21.966832 q 3.36,0 3.36,-4.56 0,-1.98 -0.93,-3.21 -0.93,-1.26 -2.4,-1.26 -1.41,0 -2.37,1.17 -0.93,1.17 -0.93,3.06 0,4.8 3.27,4.8 z m -6.96,9.93 0,-21.75 3.75,0 0.03,1.8 q 1.35,-2.1900003 4.11,-2.1900003 1.38,0 2.55,0.5400003 1.2,0.54 2.04,1.56 0.84,1.02 1.32,2.49 0.48,1.47 0.48,3.33 0,1.68 -0.42,3.09 -0.39,1.38 -1.17,2.4 -0.78,1.02 -1.92,1.59 -1.11,0.54 -2.55,0.54 -2.73,0 -4.38,-2.31 l 0,8.91 -3.84,0 z"
       style="font-size:30px;font-family:'Coolvetica Rg';fill:#2c2926"
       id="path4160" />
    <path
       d="m 37.453244,24.906832 0,-14.76 3.9,0 0,14.76 -3.9,0 z m 0,-16.5300003 0,-3.63 3.9,0 0,3.63 -3.9,0 z"
       style="font-size:30px;font-family:'Coolvetica Rg';fill:#2c2926"
       id="path4162" />
    <path
       d="m 42.478244,24.906832 0,-3 7.53,-8.67 -7.02,0 0,-3.09 12,0 0,3.15 -7.53,8.43 7.74,0 0,3.18 -12.72,0 z"
       style="font-size:30px;font-family:'Coolvetica Rg';fill:#2c2926"
       id="path4164" />
    <path
       d="m 55.661838,24.906832 0,-3 7.53,-8.67 -7.02,0 0,-3.09 12,0 0,3.15 -7.53,8.43 7.74,0 0,3.18 -12.72,0 z"
       style="font-size:30px;font-family:'Coolvetica Rg';fill:#2c2926"
       id="path4166" />
    <path
       d="m 78.325432,17.676832 q -0.3,0.3 -0.87,0.48 -0.57,0.18 -1.65,0.39 -1.68,0.33 -2.31,0.84 -0.63,0.51 -0.63,1.47 0,1.65 1.89,1.65 0.75,0 1.38,-0.24 0.66,-0.27 1.11,-0.69 0.48,-0.45 0.75,-1.02 0.3,-0.6 0.3,-1.26 l 0.03,-1.62 z m 0.27,7.23 q -0.18,-0.57 -0.24,-1.32 -0.69,0.78 -1.83,1.26 -1.14,0.45 -2.64,0.45 -2.55,0 -3.75,-1.11 -1.17,-1.14 -1.17,-2.94 0,-1.59 0.51,-2.52 0.51,-0.96 1.41,-1.5 0.9,-0.54 2.13,-0.78 1.26,-0.27 2.73,-0.48 1.47,-0.21 1.98,-0.54 0.51,-0.36 0.51,-1.14 0,-0.72 -0.69,-1.11 -0.66,-0.42 -1.8,-0.42 -1.35,0 -1.95,0.6 -0.57,0.6 -0.72,1.59 l -3.63,0 q 0.03,-1.14 0.36,-2.1 0.36,-0.96 1.11,-1.65 0.78,-0.69 2.01,-1.05 1.23,-0.3900003 3,-0.3900003 1.74,0 2.94,0.3900003 1.23,0.39 1.95,1.14 0.75,0.72 1.08,1.83 0.33,1.08 0.33,2.46 l 0,9.33 -3.63,0 z"
       style="font-size:30px;font-family:'Coolvetica Rg';fill:#2c2926"
       id="path4168" />
  </g>
</svg>
